<svg width="68" height="24" viewBox="0 0 68 24" fill="none" xmlns="http://www.w3.org/2000/svg">
<path fill-rule="evenodd" clip-rule="evenodd" d="M7.37702 15.4167C6.89847 15.6823 6.38896 15.8148 5.84884 15.8148H5.43203C5.32376 15.8148 5.16914 15.8057 4.72259 15.7267L6.23241 9.30267C6.51017 9.05307 6.80979 8.89104 7.15716 8.81268C7.50453 8.73467 7.72824 8.71362 7.94461 8.71362C8.60804 8.71362 9.1214 8.90625 9.36854 9.32796C9.61534 9.74932 9.739 10.3348 9.739 11.0841C9.739 11.6932 9.63843 12.2787 9.43798 12.8407C9.23719 13.4027 8.96328 13.9061 8.61608 14.3512C8.26871 14.796 7.8554 15.1514 7.37702 15.4167ZM10.781 6.18955C10.2404 5.92421 9.60004 5.79136 8.85894 5.79136C8.5037 5.79136 8.1719 5.83046 7.86336 5.90846C7.55429 5.98683 7.26324 6.08783 6.9547 6.22828L8.37287 0.194336L4.78355 0.75632L0.777588 17.7816C1.22518 18.0004 1.69971 18.172 2.2017 18.2967C2.70317 18.4216 3.17787 18.5152 3.62564 18.5778C4.07324 18.6401 4.47098 18.6751 4.81835 18.6832C5.16572 18.6908 5.40885 18.6949 5.54773 18.6949C6.62814 18.6949 7.63178 18.4878 8.55792 18.0742C9.48425 17.6608 10.2867 17.0988 10.9663 16.3882C11.6454 15.6778 12.1819 14.8426 12.5756 13.8824C12.9693 12.9222 13.1661 11.9035 13.1661 10.8262C13.1661 10.1238 13.0809 9.46805 12.9113 8.85919C12.7412 8.25016 12.4789 7.71966 12.124 7.26664C11.7687 6.81397 11.3211 6.45506 10.781 6.18955ZM20.2743 4.28844L20.8017 2.04492H17.3633L16.8359 4.28844H20.2743ZM24.2054 15.5289C24.4582 15.6572 24.8064 15.7208 25.2494 15.7208C25.6292 15.7208 25.997 15.6849 26.353 15.6129C26.5858 15.5659 26.8273 15.5103 27.0678 15.4274L26.3517 18.4566C26.2954 18.4704 26.2085 18.4917 26.1513 18.5049C25.5973 18.6328 24.9409 18.6969 24.1816 18.6969C23.0898 18.6969 22.2433 18.5327 21.6423 18.2049C21.0408 17.8771 20.6136 17.4291 20.3607 16.8609C20.1075 16.2931 19.9966 15.6411 20.0286 14.9048C20.0601 14.1691 20.1709 13.3928 20.3607 12.5768L22.6865 2.64059L26.3648 2.06445L25.463 5.78466H29.4025L28.6906 8.71274H24.7749L23.7307 13.1288C23.6357 13.4971 23.5764 13.841 23.5526 14.1608C23.529 14.481 23.5682 14.7571 23.6714 14.9889C23.7741 15.2209 23.952 15.401 24.2054 15.5289ZM13.4442 18.6971L16.4796 5.78149H19.918L16.8826 18.6971H13.4442ZM50.1629 8.71215C48.5597 8.71215 48.2536 8.71215 47.5966 9.05674C47.1303 9.3012 46.7443 9.66878 46.4053 10.0976C46.066 10.5265 45.8001 11.0215 45.6075 11.5827C45.4144 12.1444 45.3182 12.729 45.3182 13.3372C45.3182 14.0856 45.4415 14.6785 45.6885 15.1149C45.9348 15.5517 46.3899 15.7698 47.053 15.7698C47.4075 15.7698 47.7274 15.6997 48.0129 15.5593C48.298 15.419 48.6027 15.185 48.9264 14.8575C48.9572 14.468 49.0074 14.0587 49.0769 13.6296C49.1402 13.2376 49.2192 12.8717 49.2914 12.5374L49.3114 12.4444L50.1629 8.71215ZM52.6042 13.0569C52.388 13.9459 52.3265 14.8385 52.419 15.7352C52.5117 16.6322 52.8508 18.0063 53.1816 18.6942H49.8543C49.5514 18.1761 49.4844 17.8632 49.4381 17.6468C49.4223 17.5728 49.4088 17.5101 49.3892 17.4544C48.9574 17.8133 48.4793 18.1094 47.9553 18.3433C47.4309 18.5771 46.845 18.6942 46.1973 18.6942C45.4263 18.6942 44.767 18.5575 44.2199 18.2849C43.6723 18.0121 43.2252 17.6456 42.8784 17.1855C42.5313 16.7258 42.2805 16.1877 42.1268 15.5716C41.9723 14.9556 41.8954 14.2967 41.8954 13.595C41.8954 12.5189 42.0839 11.5054 42.4621 10.5542C42.8397 9.60306 43.3641 8.77255 44.0349 8.06286C44.7055 7.35335 46.3243 5.78875 48.9806 5.78875L54.3148 5.78857L52.6042 13.0569ZM32.4872 15.7272C32.7511 15.7902 33.077 15.8215 33.4653 15.8215C34.0706 15.8215 34.6214 15.7077 35.1185 15.4801C35.6151 15.2526 36.0382 14.9347 36.3875 14.5263C36.7368 14.1182 37.0081 13.6278 37.2024 13.0545C37.3962 12.4816 37.4934 11.8499 37.4934 11.159C37.4934 10.4841 37.3458 9.91082 37.0511 9.43993C36.756 8.96887 36.2388 8.71857 35.5093 8.71556C34.9992 8.71362 34.1521 8.71362 34.1521 8.71362L32.4872 15.7272ZM40.9394 10.9001C40.9394 12.0463 40.7531 13.0942 40.3806 14.0438C40.0082 14.9939 39.4919 15.8141 38.8323 16.5045C38.1722 17.1956 37.3805 17.7332 36.4572 18.1178C35.5335 18.5022 34.5283 18.6946 33.4417 18.6946C32.9139 18.6946 32.386 18.6476 31.8585 18.5533L30.8106 22.8155H27.3645L31.3647 5.79019C31.7815 5.78994 33.4789 5.79005 34.751 5.79013H34.7598L35.9566 5.79019C36.8257 5.79019 37.5749 5.92375 38.2035 6.1905C38.8323 6.45761 39.3481 6.82253 39.752 7.28546C40.1553 7.74874 40.454 8.29038 40.6484 8.91021C40.8422 9.53074 40.9394 10.1937 40.9394 10.9001ZM67.0275 5.7891H63.5893L61.5894 14.2983H61.5929L61.3181 15.4688C61.1263 15.5233 60.9353 15.5723 60.7457 15.6106C60.3897 15.6826 60.0219 15.7187 59.6421 15.7187C59.1989 15.7187 58.8509 15.6549 58.5979 15.5266C58.3447 15.3987 58.1668 15.2188 58.0639 14.9866C57.9609 14.7548 57.9216 14.4789 57.9453 14.1585C57.9691 13.8387 58.0284 13.4948 58.1234 13.1266L59.1674 8.71046L59.8557 5.78238L59.8559 5.78149H56.3433L54.7534 12.5747C54.5636 13.3907 54.4527 14.1669 54.4213 14.9027C54.3893 15.6388 54.5001 16.291 54.7534 16.8586C55.0063 17.4268 55.4335 17.875 56.035 18.2028C56.636 18.5304 57.4825 18.6948 58.5741 18.6948C59.3336 18.6948 59.99 18.6307 60.544 18.5026C60.5664 18.4975 60.5879 18.492 60.6097 18.4866L60.6082 18.4929C60.4543 19.1938 60.1426 19.7621 59.6423 20.2058C59.1416 20.6498 58.3985 20.8718 57.4133 20.8718C56.9926 20.8718 56.6104 20.8465 56.2641 20.798L55.5874 23.6774C56.0451 23.7374 56.5525 23.7684 57.1129 23.7684C58.16 23.7684 59.0765 23.6474 59.8618 23.4061C60.6472 23.1646 61.3206 22.7988 61.8827 22.3081C62.4447 21.8176 62.9144 21.2022 63.2918 20.463C63.6689 19.723 63.9731 18.8474 64.2041 17.8349L66.5833 7.72005L66.5779 7.71771L66.5747 7.71633L67.0275 5.7891Z" fill="#002855"/>
</svg>
