<svg width="301" height="82" viewBox="0 0 301 82" fill="none" xmlns="http://www.w3.org/2000/svg">
<g clip-path="url(#clip0_24_383)">
<path d="M110.316 61.048H117.154L116.021 55.7432V24.117H109.48V38.5418C107.512 36.2618 104.806 34.9242 101.611 34.9242C95.0686 34.9242 90.0037 40.3263 90.0037 48.2587C90.0037 56.1901 95.0686 61.5932 101.611 61.5932C104.857 61.5932 107.659 60.2049 109.628 57.8246L110.316 61.047V61.048ZM239.618 42.0135C240.946 42.0135 242.175 42.359 243.306 43.1515L246.405 36.1635C244.978 35.2697 243.306 34.8746 241.684 34.8746C238.732 34.8746 236.273 36.209 234.701 38.6918L234.011 35.4663H227.272L228.354 40.4732V61.0439H234.892V44.7373C235.778 43.0511 237.451 42.0115 239.615 42.0115V42.0135H239.618ZM258.797 54.7025C255.013 54.7025 252.208 52.1752 252.208 48.2577C252.208 44.2925 255.013 41.8149 258.797 41.8149C262.635 41.8149 265.39 44.2925 265.39 48.2577C265.39 52.1752 262.635 54.7025 258.798 54.7025H258.797ZM96.3472 48.2577C96.3472 44.2925 99.1506 41.8149 102.937 41.8149C106.775 41.8149 109.529 44.2925 109.529 48.2577C109.529 52.1752 106.775 54.7025 102.939 54.7025C99.1527 54.7025 96.3472 52.1752 96.3472 48.2577ZM287.768 54.7025C283.982 54.7025 281.178 52.1752 281.178 48.2577C281.178 44.2925 283.982 41.8149 287.768 41.8149C291.604 41.8149 294.358 44.2925 294.358 48.2577C294.358 52.1752 291.604 54.7025 287.768 54.7025ZM133.038 41.4177C136.431 41.4177 138.645 43.0035 139.333 45.928H126.743C127.481 43.0035 129.694 41.4177 133.037 41.4177H133.038ZM211.286 41.4177C214.682 41.4177 216.895 43.0035 217.583 45.928H204.994C205.731 43.0035 207.944 41.4177 211.288 41.4177H211.286ZM179.37 61.048H189.894L196.732 35.4694H189.601L184.585 56.1901L179.568 35.4694H172.534L179.372 61.047L179.37 61.048ZM162.499 61.048H169.037V35.4683H162.499V61.048ZM134.041 61.5218C137.682 61.5218 141.272 60.5287 144.272 58.5963L141.764 52.9459C139.402 54.1852 136.796 54.929 134.14 54.929C130.698 54.929 128.288 53.5904 127.254 51.1118H145.648C145.844 50.1704 145.944 49.229 145.944 48.088C145.944 40.1566 140.485 34.8528 133.156 34.8528C125.78 34.8528 120.37 40.2063 120.37 48.1873C120.37 56.3163 125.731 61.5218 134.043 61.5218H134.041ZM300.703 48.2577C300.703 40.3263 295.194 34.9232 287.768 34.9232C280.34 34.9232 274.833 40.3263 274.833 48.2577C274.833 56.1901 280.34 61.5921 287.767 61.5921C295.194 61.5921 300.702 56.1901 300.702 48.2577H300.703ZM212.174 61.5921C215.811 61.5921 219.402 60.6011 222.405 58.6677L219.894 53.0142C217.534 54.2535 214.927 54.9963 212.27 54.9963C208.829 54.9963 206.418 53.6597 205.385 51.179H223.78C223.976 50.2377 224.074 49.2963 224.074 48.1563C224.074 40.2249 218.614 34.9211 211.285 34.9211C203.91 34.9211 198.499 40.2735 198.499 48.2556C198.499 56.3846 203.861 61.5901 212.173 61.5901V61.5921H212.174ZM258.798 61.5921C266.226 61.5921 271.732 56.1901 271.732 48.2577C271.732 40.3263 266.225 34.9232 258.797 34.9232C251.37 34.9232 245.862 40.3263 245.862 48.2577C245.862 56.1901 251.371 61.5921 258.796 61.5921H258.798ZM150.105 61.047H156.645V24.1159H150.104V61.047H150.105ZM165.793 31.947C168.104 31.947 169.875 30.1615 169.875 27.7821C169.875 25.4028 168.106 23.6184 165.794 23.6184C163.433 23.6184 161.662 25.4028 161.662 27.7821C161.662 30.1615 163.434 31.9459 165.795 31.9459L165.793 31.947ZM53.4192 0.836972L49.6744 36.2804L43.2865 6.39835L23.2589 10.6335L29.6437 40.5135L0.769226 46.617L5.86923 70.4856L56.6458 81.2173L68.2579 55.2808L73.7841 2.96697L53.4172 0.835938L53.4192 0.838006V0.836972ZM37.3744 52.2539C36.3275 53.2077 34.9434 53.1197 33.4744 52.6335C32.0085 52.1494 31.3568 50.3856 31.9123 48.2535C32.3261 46.6708 34.2741 46.4328 35.2485 46.4163C35.6189 46.4101 35.983 46.4846 36.3192 46.6356C37.0082 46.9459 38.1751 47.608 38.412 48.6177C38.7534 50.0742 38.4244 51.297 37.3775 52.2508H37.3754V52.2528L37.3744 52.2539ZM52.0744 53.8987C51.3141 55.2125 49.3175 55.3863 47.353 54.4304C46.0289 53.7849 46.0392 52.1421 46.1841 51.1408C46.2609 50.5946 46.4824 50.0789 46.8254 49.647C47.2982 49.0511 48.0875 48.2742 48.9999 48.2504C50.4834 48.2111 51.7599 48.8732 52.481 50.0711C53.2051 51.2649 52.843 52.5818 52.0806 53.8987H52.0744Z" fill="#345CAF"/>
</g>
<defs>
<clipPath id="clip0_24_383">
<rect width="300" height="80.6897" fill="white" transform="translate(0.769226 0.655273)"/>
</clipPath>
</defs>
</svg>
