<svg width="211" height="90" viewBox="0 0 211 90" fill="none" xmlns="http://www.w3.org/2000/svg">
<g clip-path="url(#clip0_24_397)">
<path d="M85.2471 24.7375C85.5984 25.0884 86.1253 25.2638 86.6522 25.4393C87.1792 25.6147 87.7061 25.6147 88.4087 25.6147C89.2869 25.6147 89.9895 25.4393 90.5164 25.2638C91.0433 25.0884 91.5703 24.7375 91.9215 24.3866C92.2728 24.0358 92.6241 23.6849 92.7998 23.334C92.9754 22.9831 93.1511 22.6322 93.3267 22.2814C93.5023 21.9305 93.5023 21.5796 93.5023 21.4042C93.5023 21.2287 93.5023 21.0533 93.5023 20.8779C93.5023 19.6498 93.1511 18.5972 92.2728 17.8954C91.5703 17.1936 90.3408 16.8428 88.9356 16.8428C88.0574 16.8428 87.3548 17.0182 86.6522 17.1937C85.9497 17.3691 85.5984 17.72 85.0714 18.2463C84.7201 18.5972 84.3689 19.1235 84.1932 19.6498C84.0176 20.1761 83.8419 20.7024 83.8419 21.4042C83.8419 22.1059 84.0176 22.6322 84.1932 23.1586C84.5445 23.8603 84.7201 24.3866 85.2471 24.7375Z" fill="#345CAF"/>
<path d="M193.443 64.3862C194.146 59.123 195.376 52.1054 195.727 50.0002C195.903 48.5967 196.254 46.8423 196.605 44.5616C196.956 42.2809 197.308 40.5265 197.483 39.2984C197.659 38.0704 197.835 37.0177 198.01 35.9651C198.186 34.9125 198.537 33.8598 198.537 33.1581C198.537 32.9826 198.713 32.6318 198.713 32.4563C198.713 31.7546 198.537 31.4037 198.01 31.0528C197.483 30.7019 196.956 30.5265 196.254 30.5265C195.727 30.5265 195.024 30.7019 194.497 30.8774C193.795 31.0528 193.268 31.4037 192.741 31.7546C192.214 32.1054 191.687 32.6318 191.16 33.1581C190.633 33.6844 190.282 34.9125 190.106 35.6142L187.472 47.8949C187.296 48.5967 187.12 49.4739 186.945 50.5265C186.593 51.5791 186.242 52.6318 185.715 53.509C185.188 54.5616 184.661 55.2633 183.959 55.9651C183.256 56.6669 182.554 57.0177 181.851 57.0177C181.324 57.0177 180.973 56.8423 180.621 56.6669C180.27 56.4914 180.095 56.1405 179.919 55.6142C179.743 55.2633 179.568 54.737 179.568 54.2107C179.568 53.6844 179.392 53.1581 179.392 52.6318C179.392 51.5791 179.568 50.3511 179.743 48.9476C179.919 47.544 180.27 45.7897 180.797 43.509C181.324 40.3511 182.202 37.1932 182.905 34.2107C183.08 33.509 183.08 32.9826 183.08 32.2809C182.905 30.8774 181.675 30.7019 179.216 30.3511C176.757 29.8247 172.542 29.4739 172.717 30.8774C172.717 32.2809 173.069 32.8072 174.65 33.509C174.65 33.509 172.717 40.7019 172.366 42.9826C172.015 45.2633 171.664 47.0177 171.488 48.5967C170.961 50.0002 168.502 56.6669 167.448 56.8423C163.76 57.3686 166.394 41.93 167.097 39.123C167.448 37.1932 165.516 35.7897 163.233 35.0879C161.828 34.5616 160.949 33.8598 159.017 31.93C158.666 31.5791 158.315 30.3511 157.963 29.8247C156.558 28.2458 154.451 27.3686 152.518 28.4212C150.059 29.6493 150.059 33.3335 151.289 35.2633C151.113 36.4914 151.113 37.7195 150.938 38.4212C150.762 41.4037 149.532 44.5616 148.303 47.3686C147.952 48.4212 147.425 49.2984 146.898 50.1756C146.02 51.5791 144.614 52.8072 143.209 53.8598C141.804 54.737 140.223 55.7897 138.643 56.1405C137.94 56.316 137.062 56.4914 136.359 56.316C134.076 55.9651 133.725 55.2633 133.198 54.3862C143.385 49.2984 145.844 42.8072 145.493 37.7195C145.141 32.8072 141.102 29.4739 136.359 30.1756C132.846 30.5265 125.469 34.737 124.064 45.0879C123.888 46.316 123.537 48.0704 123.888 51.0528C123.01 51.4037 122.132 51.5791 121.605 51.7546C120.024 51.93 117.214 51.0528 116.336 48.4212C116.16 48.4212 116.16 47.8949 116.16 47.3686C116.16 46.8423 116.16 46.316 116.336 45.9651C116.336 45.4388 116.511 45.0879 116.687 44.737C116.863 44.3862 116.863 43.8598 117.038 43.509C117.214 43.1581 117.741 41.7546 118.619 39.4739C118.795 39.123 119.146 38.4212 119.673 37.3686C119.849 36.8423 120.2 36.316 120.376 35.6142C120.551 35.0879 120.551 34.5616 120.551 33.8598C120.551 32.9826 120.2 32.4563 119.322 31.93C118.619 31.4037 117.565 31.2283 116.336 31.2283C115.809 31.2283 115.458 31.2283 114.931 31.4037C114.579 31.5791 114.052 31.7546 113.701 31.93C113.35 32.1054 112.999 32.4563 112.823 32.6318C112.647 32.9826 112.472 33.1581 112.472 33.509L103.514 55.2633H103.338L104.041 33.3335C104.041 32.8072 103.865 32.2809 103.514 31.7546C103.162 31.4037 102.636 31.0528 101.582 31.0528C100.528 30.8774 94.9072 30.7019 94.5559 30.7019C93.502 30.7019 92.4482 30.3511 92.4482 32.2809C92.4482 33.6844 93.3264 34.2107 95.6098 34.737C95.6098 34.737 95.6098 38.5967 95.6098 40.0002C95.6098 40.8774 95.6098 41.7546 95.6098 42.6318C95.6098 43.509 95.6098 44.3862 95.7854 45.2633C95.7854 46.316 95.9611 47.3686 95.9611 48.5967C95.9611 49.4739 96.1367 50.7019 96.1367 51.93C93.6777 54.0353 89.8135 57.0177 87.1789 56.8423C85.0711 56.8423 86.125 50.8774 87.1789 47.0177C88.2327 43.1581 90.1648 36.1405 90.3405 35.2633C90.5161 34.3862 90.6917 33.6844 90.6917 33.1581C90.6917 32.6318 90.5161 32.1054 90.1648 31.7546C89.9892 31.5791 89.6379 31.2283 88.584 31.2283C85.5981 30.8774 85.4224 30.8774 82.2608 30.3511C80.68 30.1756 79.2749 30.0002 79.4505 32.1054C79.6262 33.3335 79.4505 33.8598 82.4365 34.5616C82.0852 36.1405 81.5583 38.0704 81.0313 39.6493C80.1531 42.8072 79.6262 44.9125 79.2749 45.7897C79.0992 46.316 78.7479 48.4212 78.0454 52.1055C78.0454 52.4563 78.0454 52.6318 77.8697 52.9826C75.762 54.5616 73.1273 56.1405 70.4927 56.316C67.858 56.316 69.4388 47.1932 69.6145 46.8423C69.6145 46.4914 69.7901 46.1405 69.7901 45.9651C70.6683 43.8598 71.3709 42.4563 72.4248 40.1756C73.4786 38.0704 74.5325 35.7897 75.4107 33.6844C76.4646 31.4037 77.3428 29.2984 78.221 27.0177C79.0992 24.737 79.9775 22.6318 80.5044 20.3511C81.207 18.0704 81.7339 15.9651 81.9095 13.8598C82.9634 7.19317 81.0313 0.175624 76.8159 0.000185265C70.4927 -0.350692 66.6285 6.49141 63.6426 17.544C62.94 19.8247 62.0618 22.6318 61.3592 26.316C60.6566 29.8247 60.3053 31.5791 60.3053 31.5791C60.3053 31.5791 60.1297 33.3335 59.7784 37.0177C59.4271 40.7019 59.4271 43.1581 59.6027 45.2633C59.7784 46.6669 59.954 47.8949 60.1297 49.123C54.5091 53.6844 49.2397 57.3686 45.5512 56.6669C43.2679 56.316 42.9166 55.6142 42.3896 54.737C52.577 49.6493 55.036 43.1581 54.6847 38.0704C54.3334 33.1581 50.2936 29.8247 45.5512 30.5265C42.0383 30.8774 34.6613 35.0879 33.2561 45.4388C33.0805 46.8423 32.7292 48.9476 33.4318 52.8072C32.9049 53.1581 32.3779 53.509 31.851 53.8598C31.3241 54.2107 30.7971 54.5616 30.2702 54.9125C29.7433 55.2633 29.2163 55.4388 28.6894 55.6142C28.5138 55.6142 28.3381 55.7897 28.1625 55.7897H27.9868C27.8112 55.7897 27.6355 55.6142 27.4599 55.4388C27.2842 55.2633 27.1086 54.9125 26.933 54.3862C26.7573 54.0353 26.5817 53.509 26.406 52.9826V52.8072C26.2304 51.2283 26.406 49.8247 26.933 47.7195C26.933 47.544 27.2842 46.4914 27.4599 46.316C28.5138 44.3862 29.7433 41.4037 30.6215 39.123C31.6753 37.0177 32.5536 34.737 33.6074 32.4563C34.6613 30.1756 35.5395 27.8949 36.4177 25.7897C37.296 23.509 37.9985 21.2283 38.7011 19.123C39.4037 16.8423 39.755 14.737 40.1063 12.4563C40.4576 8.94755 39.9306 0.000185265 34.31 0.000185265C30.9728 0.000185265 27.2842 1.40369 24.6496 6.31597C20.7854 13.1581 19.2046 30.1756 19.029 34.737C9.89549 29.4739 3.04537 38.5967 0.586354 48.4212C-0.116222 51.0528 -0.818798 63.1581 6.55825 63.509C7.61211 63.509 8.49034 63.3335 9.5442 62.9827C10.5981 62.6318 11.6519 62.2809 12.7058 61.5791C13.7597 61.0528 14.8135 60.3511 15.8674 59.6493C16.9212 58.9476 17.7995 58.0704 18.8533 57.1932C19.2046 58.5967 19.5559 59.6493 20.2585 60.5265C20.7854 61.4037 21.488 61.93 22.1906 62.4563C22.8931 62.8072 23.4201 63.1581 24.1227 63.3335C24.6496 63.509 25.7034 63.509 26.0547 63.509C30.6215 63.509 34.1344 60.8774 36.4177 59.2984C37.296 60.5265 38.7011 61.5791 40.2819 62.2809C41.8627 62.8072 43.6191 63.3335 45.5512 63.3335C52.2257 63.509 58.3732 59.2984 62.0618 55.9651C62.2374 56.4914 62.4131 57.1932 62.7643 57.7195C63.4669 59.4739 64.8721 62.9826 68.7362 63.3335C69.4388 63.3335 70.317 63.1581 71.1953 62.9827C72.0735 62.8072 72.9517 62.4563 73.8299 62.1055C74.7081 61.7546 75.5864 61.4037 76.6402 61.0528C77.3428 60.7019 77.8697 60.3511 78.5723 60.1756C78.7479 60.7019 79.0992 61.2283 79.4505 61.5791C79.9775 62.1055 80.5044 62.6318 81.3826 62.9827C82.0852 63.3335 83.139 63.509 84.1929 63.509C85.4224 63.509 86.8276 63.3335 88.2327 62.8072C89.6379 62.2809 91.043 61.7546 92.4482 61.0528C93.8533 60.3511 95.0828 59.6493 96.3124 58.7721C96.6636 58.4212 97.0149 58.2458 97.3662 58.0704C97.5419 58.9476 97.7175 59.6493 97.8931 60.5265C98.2444 61.5791 98.5957 61.93 99.2983 62.6318C100.001 63.3335 101.23 63.509 102.636 63.509C103.338 63.509 104.568 62.9826 105.446 62.2809C106.324 61.5791 106.675 61.2283 107.554 60.0002C108.432 58.9476 109.31 57.7195 110.013 56.316C110.891 54.9125 111.593 53.6844 112.12 52.2809C112.12 53.1581 115.458 57.8949 120.024 57.8949C121.781 57.8949 123.713 57.3686 125.645 56.4914C126.523 58.4212 128.28 61.2283 131.09 62.2809C132.671 62.8072 134.427 63.3335 136.359 63.3335C141.804 63.509 147.073 60.5265 150.586 56.6669C151.816 55.2633 152.87 53.8598 153.572 52.2809C155.329 48.5967 156.383 44.3862 157.085 40.3511C157.085 40.0002 157.788 37.8949 157.612 37.7195C158.666 38.7721 159.369 39.4739 161.301 40.7019C159.544 50.1756 157.436 63.509 166.57 63.3335C168.853 63.3335 170.961 60.8774 172.366 58.4212C172.893 59.4739 173.42 60.3511 174.123 61.0528C174.825 61.93 175.703 62.4563 176.757 62.8072C177.811 63.1581 178.689 63.509 179.743 63.509C180.973 63.509 182.202 63.1581 183.432 62.6318C184.661 61.93 185.891 61.2283 187.12 60.1756L186.418 64.0353C182.554 64.9125 173.947 68.2458 172.893 78.9476C172.366 83.8598 176.582 89.8248 181.5 89.8248C185.364 89.8248 190.106 88.9476 192.038 78.5967C192.214 77.3686 192.565 76.316 192.741 75.4388C192.917 74.5616 192.917 73.509 193.092 72.4563C193.092 72.1055 193.443 70.1756 193.443 69.4739C196.254 69.123 198.888 71.5791 199.415 68.2458C199.064 66.1405 194.322 64.737 193.443 64.3862ZM17.6238 50.1756C16.9212 51.2283 16.2187 52.2809 15.5161 53.1581C15.1648 53.509 14.8135 53.8598 14.4622 54.2107C14.1109 54.5616 13.7597 54.9125 13.4084 55.2633C13.0571 55.6142 7.9634 58.9476 7.9634 53.3335C7.9634 44.737 13.584 36.4914 18.8533 41.93C18.6777 42.4563 17.6238 49.8247 17.6238 50.1756ZM25.3522 36.8423C25.3522 35.7897 25.1765 34.5616 25.1765 33.3335C25.1765 32.1054 25.3522 30.7019 25.5278 29.2984C25.8791 26.316 26.0547 24.737 26.0547 24.737C26.0547 24.737 26.406 23.1581 27.1086 19.8247C27.8112 16.4914 28.3381 14.2107 28.865 12.8072C29.392 11.4037 30.0946 10.1756 30.6215 9.29843C31.1484 8.42124 31.851 7.89492 32.3779 7.89492C32.5536 7.89492 32.7292 8.07036 32.7292 8.59668C32.7292 9.12299 32.9049 9.64931 32.9049 10.1756C32.9049 12.1054 32.5536 14.3862 32.2023 16.6669C31.6754 19.123 31.1484 21.4037 30.2702 23.8598C29.5676 26.316 28.6894 28.5967 27.8112 30.8774C26.933 32.9826 26.2304 35.0879 25.3522 36.8423ZM45.5512 36.6669C46.9564 36.4914 48.5372 37.0177 48.5372 39.8247C48.3615 44.2107 41.5114 48.4212 40.8088 48.4212C40.6332 48.0704 40.1063 37.7195 45.5512 36.6669ZM67.3311 37.8949C67.3311 35.6142 67.3311 32.9826 67.858 30.0002C68.2093 27.0177 68.3849 25.4388 68.3849 25.4388C68.3849 25.4388 68.7362 23.8598 69.4388 20.5265C70.1414 17.1932 70.844 14.9125 71.3709 13.509C71.8978 12.1054 73.1273 7.89492 75.2351 7.89492C76.6402 7.89492 75.2351 15.0879 74.7081 17.3686C74.1812 19.6493 73.4786 22.1054 72.776 24.5616C71.8978 27.0177 71.1953 29.2984 70.1414 31.5791C69.0875 34.0353 68.2093 35.9651 67.3311 37.8949ZM136.359 36.6669C137.764 36.4914 139.345 37.0177 139.345 39.8247C139.169 44.2107 132.319 48.4212 131.617 48.4212C131.266 48.0704 130.914 37.7195 136.359 36.6669ZM180.973 84.5616C176.406 84.2107 179.392 70.5265 185.891 70.0002C184.837 76.8423 184.837 84.9125 180.973 84.5616Z" fill="#345CAF"/>
</g>
<defs>
<clipPath id="clip0_24_397">
<rect width="210" height="90" fill="white" transform="translate(0.230713)"/>
</clipPath>
</defs>
</svg>
