<svg width="160" height="70" viewBox="0 0 160 70" fill="none" xmlns="http://www.w3.org/2000/svg">
<g clip-path="url(#clip0_24_387)">
<path d="M0.884583 49.5753V1.13965H9.40019V49.5753H0.884583Z" fill="#345CAF"/>
<path d="M31.198 14.4375C20.2799 14.4375 12.7244 22.8249 12.7244 32.4252C12.7244 43.1396 20.9439 50.5207 31.2829 50.5207C41.0952 50.5207 49.61 43.2754 49.61 32.402C49.61 23.2585 42.5543 14.4375 31.198 14.4375ZM31.0978 22.6452C36.8115 22.6452 41.0172 27.0891 41.0172 32.456C41.0172 38.1464 36.3803 42.2976 31.252 42.2976C25.1924 42.2976 21.3789 37.4989 21.3789 32.4714C21.3789 26.9607 25.6844 22.6452 31.0978 22.6452Z" fill="#345CAF"/>
<path d="M71.0066 14.4375C60.0885 14.4375 52.533 22.8249 52.533 32.4252C52.533 43.1396 60.7525 50.5207 71.0915 50.5207C80.9038 50.5207 89.4186 43.2754 89.4186 32.402C89.4186 25.9989 86.6432 23.1579 86.6432 23.1579L89.0035 22.3492V15.4439H76.9089C76.9089 15.4439 74.2869 14.4375 71.0066 14.4375ZM70.9064 22.6452C76.6201 22.6452 80.8258 27.0891 80.8258 32.456C80.8258 38.1464 76.1889 42.2976 71.0606 42.2976C65.001 42.2976 61.1875 37.4989 61.1875 32.4714C61.1875 26.9607 65.493 22.6452 70.9064 22.6452Z" fill="#345CAF"/>
<path d="M80.7653 51.9434C80.7653 57.6338 76.1284 61.8158 71.0001 61.8158C64.9404 61.8158 61.1115 56.9708 61.1115 51.9434H52.4725C52.4725 62.6578 60.692 70.0389 71.0309 70.0389C80.8432 70.0389 89.358 62.8168 89.358 51.9434H80.7653Z" fill="#345CAF"/>
<path d="M92.8279 49.5752V15.4434H101.344V49.5752H92.8279Z" fill="#345CAF"/>
<path d="M109.613 49.575V23.0883H105.047V15.4431H109.613V4.96191H118.129V15.4431H122.818V23.0883H118.129V49.575H109.613Z" fill="#345CAF"/>
<path d="M102.707 5.74941C102.707 8.86108 100.183 11.3836 97.0685 11.3836C93.9541 11.3836 91.4294 8.86108 91.4294 5.74941C91.4294 2.63774 93.9541 0.115234 97.0685 0.115234C100.183 0.115234 102.707 2.63774 102.707 5.74941Z" fill="#345CAF"/>
<path d="M141.963 14.4141C130.994 14.4141 123.922 22.8059 123.922 32.7331C123.922 42.9919 131.017 50.5435 142.141 50.5435C152.517 50.5435 157.622 44.0698 157.622 44.0698L151.929 38.3745C151.929 38.3745 147.631 43.0063 142.249 43.0063C137.762 43.0063 134.175 40.5042 132.923 35.916H159.457V33.5732C159.457 24.2248 154.042 14.4141 141.963 14.4141ZM141.693 21.9051C145.616 21.9051 149.628 24.0019 150.525 29.0107H132.692C133.398 25.4899 136.481 21.9051 141.693 21.9051Z" fill="#345CAF"/>
</g>
<defs>
<clipPath id="clip0_24_387">
<rect width="158.462" height="70" fill="white" transform="translate(0.769226)"/>
</clipPath>
</defs>
</svg>
