<svg width="57" height="36" viewBox="0 0 57 36" fill="none" xmlns="http://www.w3.org/2000/svg">
<path fill-rule="evenodd" clip-rule="evenodd" d="M28.6386 30.8924C25.6597 33.4631 21.7955 35.0149 17.5731 35.0149C8.15144 35.0149 0.513672 27.2885 0.513672 17.7575C0.513672 8.22643 8.15144 0.5 17.5731 0.5C21.7955 0.5 25.6597 2.05186 28.6386 4.62253C31.6175 2.05186 35.4817 0.5 39.7041 0.5C49.1258 0.5 56.7636 8.22643 56.7636 17.7575C56.7636 27.2885 49.1258 35.0149 39.7041 35.0149C35.4817 35.0149 31.6175 33.4631 28.6386 30.8924Z" fill="#ED0006"/>
<path fill-rule="evenodd" clip-rule="evenodd" d="M28.6387 30.8924C32.3067 27.7271 34.6326 23.017 34.6326 17.7575C34.6326 12.4979 32.3067 7.78787 28.6387 4.62253C31.6176 2.05186 35.4817 0.5 39.7042 0.5C49.1259 0.5 56.7636 8.22643 56.7636 17.7575C56.7636 27.2885 49.1259 35.0149 39.7042 35.0149C35.4817 35.0149 31.6176 33.4631 28.6387 30.8924Z" fill="#F9A000"/>
<path fill-rule="evenodd" clip-rule="evenodd" d="M28.6388 30.8926C32.3067 27.7273 34.6325 23.0173 34.6325 17.7578C34.6325 12.4984 32.3067 7.78838 28.6388 4.62305C24.9708 7.78838 22.645 12.4984 22.645 17.7578C22.645 23.0173 24.9708 27.7273 28.6388 30.8926Z" fill="#FF5E00"/>
</svg>
