<svg width="246" height="84" viewBox="0 0 246 84" fill="none" xmlns="http://www.w3.org/2000/svg">
<path fill-rule="evenodd" clip-rule="evenodd" d="M9.68697 52.2281L10.8935 48.8791C11.0859 48.3052 11.5196 48.4944 11.6957 48.602C12.0315 48.8009 12.2728 48.9802 12.7065 49.2346C16.2609 51.4813 19.5544 51.5041 20.5815 51.5041C23.2424 51.5041 24.8924 50.0954 24.8924 48.1944V48.0965C24.8924 46.0291 22.3489 45.2465 19.4109 44.3465L18.7587 44.1378C14.725 42.99 10.4109 41.3302 10.4109 36.2237V36.1194C10.4109 31.2737 14.3207 27.8922 19.9163 27.8922L20.5294 27.8857C23.8163 27.8857 26.9924 28.8411 29.2946 30.2367C29.5033 30.3672 29.7054 30.6085 29.5881 30.9281L28.3489 34.277C28.1304 34.8476 27.5337 34.4694 27.5337 34.4694C25.1318 33.2178 22.4741 32.536 19.7663 32.477C17.3924 32.477 15.8663 33.7357 15.8663 35.4444V35.552C15.8663 37.5444 18.4815 38.3954 21.5141 39.3835L22.0359 39.5465C26.0565 40.8183 30.3478 42.5791 30.3478 47.4215V47.5226C30.3478 52.7563 26.5457 56.0074 20.4315 56.0074C17.4283 56.0074 14.5554 55.5444 11.5163 53.9302C10.9424 53.5976 10.375 53.3107 9.81414 52.9031C9.75545 52.8183 9.49784 52.7172 9.68371 52.2281H9.68697ZM99.2207 52.2281L100.43 48.8791C100.607 48.3313 101.118 48.5335 101.229 48.602C101.562 48.8074 101.81 48.9802 102.24 49.2346C105.801 51.4813 109.088 51.5041 110.125 51.5041C112.776 51.5041 114.429 50.0954 114.429 48.1944V48.0965C114.429 46.0291 111.889 45.2465 108.951 44.3465L108.299 44.1378C104.259 42.99 99.9446 41.3302 99.9446 36.2237V36.1194C99.9446 31.2737 103.858 27.8922 109.453 27.8922L110.063 27.8857C113.35 27.8857 116.529 28.8411 118.835 30.2367C119.037 30.3672 119.242 30.6085 119.128 30.9281C119.014 31.2248 117.997 33.9639 117.889 34.277C117.664 34.8476 117.074 34.4694 117.074 34.4694C114.671 33.2173 112.012 32.5355 109.303 32.477C106.929 32.477 105.403 33.7357 105.403 35.4444V35.552C105.403 37.5444 108.015 38.3954 111.051 39.3835L111.573 39.5465C115.593 40.8183 119.882 42.5791 119.882 47.4215V47.5226C119.882 52.7563 116.083 56.0074 109.968 56.0074C106.962 56.0074 104.089 55.5444 101.053 53.9302C100.479 53.5976 99.912 53.3107 99.3478 52.9031C99.2891 52.8183 99.0315 52.7172 99.2207 52.2281ZM165.449 36.4813C165.951 38.1639 166.199 40.0128 166.199 41.9661C166.199 43.9226 165.951 45.765 165.449 47.4476C164.99 49.0701 164.202 50.5807 163.134 51.8857C162.064 53.153 160.722 54.1628 159.208 54.84C157.642 55.5574 155.803 55.9161 153.736 55.9161C151.668 55.9161 149.823 55.5574 148.264 54.84C146.75 54.1628 145.408 53.153 144.338 51.8857C143.271 50.5808 142.482 49.0717 142.02 47.4509C141.507 45.6683 141.254 43.8209 141.27 41.9661C141.27 40.0096 141.521 38.1639 142.02 36.4813C142.522 34.7857 143.301 33.2922 144.335 32.0465C145.407 30.774 146.75 29.756 148.264 29.0661C149.826 28.3357 151.662 27.9672 153.736 27.9672C155.81 27.9672 157.646 28.3357 159.208 29.0661C160.766 29.7933 162.09 30.7944 163.134 32.0465C164.171 33.2922 164.953 34.7857 165.449 36.4813ZM160.349 41.9661C160.349 39.0085 159.801 36.6835 158.712 35.0531C157.636 33.4357 156.005 32.6531 153.736 32.6531C151.466 32.6531 149.849 33.4357 148.786 35.0531C147.72 36.6835 147.175 39.0085 147.175 41.9661C147.175 44.9204 147.72 47.2618 148.792 48.9052C149.849 50.5422 151.466 51.3346 153.736 51.3346C156.005 51.3346 157.636 50.5389 158.712 48.9052C159.795 47.2618 160.349 44.9204 160.349 41.9661ZM207.377 50.5422L208.629 54.0052C208.792 54.4291 208.424 54.615 208.424 54.615C206.49 55.365 203.807 55.8998 201.195 55.8998C196.766 55.8998 193.375 54.6248 191.112 52.1074C188.862 49.5965 187.714 46.1824 187.714 41.9465C187.714 39.9868 187.998 38.1313 188.552 36.452C189.107 34.7563 189.938 33.2628 191.034 32.0172C192.171 30.7366 193.575 29.7195 195.146 29.0367C196.776 28.3096 198.693 27.9444 200.833 27.9444C202.277 27.9444 203.562 28.0324 204.664 28.1954C205.841 28.3781 207.41 28.802 208.072 29.0596C208.192 29.1052 208.528 29.2683 208.391 29.6628C207.909 31.0226 207.579 31.9096 207.133 33.1487C206.937 33.677 206.539 33.5009 206.539 33.5009C204.86 32.9726 203.249 32.7313 201.146 32.7313C198.618 32.7313 196.721 33.5726 195.482 35.2194C194.229 36.8791 193.528 39.0541 193.518 41.9465C193.509 45.1194 194.304 47.4704 195.713 48.9248C197.118 50.3759 199.082 51.1096 201.553 51.1096C202.554 51.1096 203.5 51.0444 204.351 50.9107C205.192 50.777 205.982 50.5161 206.725 50.2259C206.725 50.2259 207.204 50.0465 207.377 50.5422ZM233.497 35.5194C234.609 39.4128 234.028 42.7748 234.009 42.9607C233.966 43.4041 233.51 43.4107 233.51 43.4107L216.23 43.3976C216.338 46.0226 216.967 47.8813 218.239 49.1433C219.488 50.3791 221.471 51.1715 224.154 51.1748C228.257 51.1846 230.008 50.3596 231.25 49.8998C231.25 49.8998 231.723 49.7302 231.902 50.1998L233.027 53.3661C233.255 53.8976 233.073 54.0835 232.88 54.1911C231.798 54.7878 229.173 55.9031 224.177 55.9161C221.754 55.9259 219.645 55.5802 217.907 54.9052C216.255 54.2935 214.767 53.308 213.56 52.0259C212.406 50.7679 211.549 49.2669 211.052 47.6335C210.517 45.8438 210.255 43.9839 210.273 42.1161C210.273 40.1596 210.524 38.3009 211.029 36.602C211.535 34.89 212.321 33.3802 213.367 32.1117C214.452 30.8171 215.813 29.781 217.349 29.0791C218.934 28.3324 220.897 27.9672 223.055 27.9672C224.904 27.9672 226.593 28.365 227.999 28.9715C229.082 29.4346 230.171 30.2726 231.286 31.4726C231.99 32.2291 233.063 33.8857 233.497 35.5194ZM216.312 39.1291H228.638C228.511 37.5444 228.201 36.1226 227.49 35.0531C226.408 33.4357 224.914 32.5454 222.648 32.5454C220.378 32.5454 218.767 33.4357 217.701 35.0531C217.003 36.1226 216.553 37.4857 216.309 39.1291H216.312ZM95.0891 35.5194C96.1978 39.4128 95.6272 42.7748 95.6076 42.9607C95.562 43.4041 95.1054 43.4107 95.1054 43.4107L77.8228 43.3976C77.9337 46.0226 78.5598 47.8813 79.8348 49.1433C81.0837 50.3791 83.063 51.1715 85.7467 51.1748C89.8489 51.1846 91.6065 50.3596 92.8456 49.8998C92.8456 49.8998 93.3185 49.7302 93.4946 50.1998L94.6228 53.3661C94.8511 53.8976 94.6685 54.0835 94.4794 54.1911C93.3902 54.7878 90.762 55.9031 85.7728 55.9161C83.3467 55.9259 81.237 55.5802 79.5022 54.9052C77.8501 54.2927 76.3615 53.3073 75.1522 52.0259C74.0012 50.7667 73.1466 49.2659 72.6511 47.6335C72.1124 45.8445 71.8474 43.9843 71.8652 42.1161C71.8652 40.1596 72.1196 38.3009 72.6217 36.602C73.0916 34.9627 73.888 33.4354 74.9631 32.1117C76.0477 30.8182 77.4066 29.7823 78.9413 29.0791C80.5326 28.3324 82.4957 27.9672 84.6478 27.9672C86.3488 27.9632 88.0329 28.3049 89.5978 28.9715C90.6804 29.4346 91.7696 30.2726 92.8815 31.4726C93.5859 32.2291 94.6587 33.8857 95.0891 35.5194ZM77.9011 39.1291H90.2337C90.1033 37.5444 89.7935 36.1226 89.0859 35.0531C88.0098 33.4357 86.5098 32.5454 84.2435 32.5454C81.9739 32.5454 80.3598 33.4357 79.3 35.0531C78.5957 36.1226 78.1489 37.4857 77.8978 39.1291H77.9011ZM47.425 38.3041C47.425 38.3041 48.7881 38.4248 50.275 38.64V37.9096C50.275 35.6041 49.7957 34.5183 48.8533 33.7911C47.888 33.0541 46.4467 32.6726 44.5815 32.6726C44.5815 32.6726 40.375 32.6205 37.0489 34.427C36.8957 34.5183 36.7685 34.5704 36.7685 34.5704C36.7685 34.5704 36.3511 34.7172 36.2011 34.29L34.9783 31.0031C34.7891 30.5302 35.1315 30.315 35.1315 30.315C36.687 29.102 40.4565 28.3683 40.4565 28.3683C41.9868 28.0994 43.5366 27.9565 45.0902 27.9411C48.5402 27.9411 51.2109 28.7433 53.0272 30.3313C54.8467 31.9259 55.7728 34.4954 55.7728 37.9585L55.7826 53.7672C55.7826 53.7672 55.8185 54.2237 55.3848 54.3281C55.3848 54.3281 54.7489 54.5041 54.1783 54.6378C53.6011 54.7715 51.5207 55.1954 49.8217 55.4824C48.0869 55.7731 46.3308 55.9193 44.5717 55.9194C42.8924 55.9194 41.3533 55.7628 39.9967 55.4531C38.7326 55.1883 37.5354 54.669 36.4783 53.927C35.5148 53.2273 34.7414 52.2981 34.2283 51.2237C33.6968 50.1378 33.4294 48.8107 33.4294 47.2781C33.4294 45.7748 33.7457 44.4346 34.3554 43.2933C34.9685 42.1585 35.8098 41.1965 36.8663 40.4433C37.9578 39.6748 39.1782 39.1082 40.4696 38.7704C41.8163 38.4117 43.2478 38.2259 44.7283 38.2259C45.8141 38.2259 46.7207 38.2487 47.425 38.3041ZM40.5478 50.4476C40.5381 50.4444 42.0967 51.6704 45.6152 51.4552C48.087 51.3052 50.2783 50.8357 50.2783 50.8357V42.977C50.2783 42.977 48.0674 42.615 45.5859 42.5791C42.0674 42.5368 40.5674 43.8313 40.5772 43.8281C39.5402 44.565 39.0348 45.6574 39.0348 47.1704C39.0348 48.1389 39.2076 48.8955 39.5565 49.4237C39.775 49.7726 39.8696 49.9031 40.5478 50.4476ZM186.814 29.3987C186.651 29.8715 185.813 32.2389 185.51 33.0248C185.399 33.3248 185.216 33.5302 184.88 33.4944C184.88 33.4944 183.889 33.2661 182.983 33.2661C182.36 33.2661 181.47 33.3444 180.667 33.5922C179.863 33.8395 179.131 34.2794 178.535 34.8737C177.902 35.4835 177.39 36.3411 177.018 37.4172C176.64 38.4998 176.445 40.2215 176.445 41.9498V54.8237C176.445 54.8925 176.432 54.9607 176.406 55.0244C176.38 55.088 176.341 55.146 176.293 55.1947C176.244 55.2435 176.187 55.2823 176.123 55.3087C176.06 55.3351 175.992 55.3487 175.923 55.3487H171.387C171.318 55.3496 171.249 55.3368 171.184 55.311C171.12 55.2852 171.061 55.2471 171.011 55.1986C170.962 55.1502 170.922 55.0924 170.895 55.0286C170.868 54.9649 170.853 54.8963 170.852 54.827V29.0498C170.852 28.7596 171.064 28.5281 171.354 28.5281H175.779C176.073 28.5281 176.282 28.7596 176.282 29.0498V31.1563C176.943 30.2694 178.13 29.4868 179.203 29.0041C180.279 28.515 181.483 28.1563 183.658 28.2867C184.789 28.3552 186.26 28.665 186.557 28.7791C186.615 28.8024 186.667 28.837 186.712 28.8808C186.756 28.9247 186.792 28.9771 186.816 29.0348C186.84 29.0925 186.852 29.1544 186.852 29.2169C186.851 29.2794 186.839 29.3412 186.814 29.3987ZM144.195 17.4541C144.315 17.5031 144.645 17.6628 144.514 18.0541L143.187 21.6835C143.076 21.9574 143.004 22.1204 142.44 21.9509C141.694 21.7162 140.917 21.5953 140.135 21.5922C139.45 21.5922 138.83 21.6802 138.283 21.8628C137.734 22.0383 137.237 22.3451 136.835 22.7563C136.299 23.2742 135.885 23.9046 135.622 24.602C134.986 26.4281 134.741 28.3748 134.709 28.4987H140.233C140.699 28.4987 140.846 28.7139 140.8 29.0563L140.154 32.6498C140.05 33.1715 139.577 33.152 139.577 33.152H133.884L129.993 55.1824C129.659 57.1582 129.151 59.1005 128.474 60.9867C127.864 62.5813 127.235 63.7454 126.224 64.8574C125.361 65.8525 124.264 66.6168 123.032 67.0813C121.835 67.5215 120.38 67.7465 118.792 67.7465C118.036 67.7465 117.221 67.7302 116.259 67.502C115.723 67.3795 115.195 67.2249 114.677 67.0389C114.465 66.9639 114.292 66.6933 114.416 66.3476C114.534 66.0052 115.558 63.2041 115.695 62.8357C115.871 62.3922 116.321 62.5618 116.321 62.5618C116.627 62.6922 116.842 62.777 117.25 62.8585C117.664 62.94 118.218 63.0118 118.639 63.0118C119.392 63.0118 120.077 62.9205 120.674 62.7183C121.391 62.4868 121.815 62.0661 122.252 61.5052C122.709 60.915 123.08 60.1161 123.462 59.0433C123.843 57.9574 124.192 56.5226 124.492 54.7846L128.366 33.1552H124.551C124.095 33.1552 123.938 32.94 123.99 32.5944L124.629 29.0009C124.73 28.4791 125.216 28.4987 125.216 28.4987H129.133L129.345 27.3313C129.932 23.8618 131.096 21.2237 132.817 19.4922C134.549 17.7476 137.011 16.8672 140.135 16.8672C141.028 16.8672 141.817 16.9259 142.486 17.0465C143.141 17.1704 143.64 17.2846 144.195 17.4541ZM66.9902 54.8237C66.9902 55.1172 66.7881 55.3487 66.4946 55.3487H61.9131C61.6196 55.3487 61.4207 55.1139 61.4207 54.827V17.9367C61.4207 17.6531 61.6228 17.4183 61.9098 17.4183H66.4946C66.7881 17.4183 66.9902 17.6531 66.9902 17.94V54.8237Z" fill="#345CAF"/>
</svg>
