<svg width="65" height="28" viewBox="0 0 65 28" fill="none" xmlns="http://www.w3.org/2000/svg">
<path fill-rule="evenodd" clip-rule="evenodd" d="M35.0135 4.35456L30.5687 5.30848V1.7048L35.0135 0.768555V4.35456ZM16.9507 2.81811L12.6298 3.7367L12.6121 17.8864C12.6121 20.5009 14.5778 22.4264 17.1986 22.4264C18.6507 22.4264 19.7132 22.1614 20.2976 21.8434V18.2574C19.7309 18.487 16.933 19.2996 16.933 16.6852V10.4141H20.2976V6.65144H16.933L16.9507 2.81811ZM6.48544 10.1842C5.5469 10.1842 4.98023 10.4491 4.98023 11.1381C4.98023 11.8903 5.95547 12.2212 7.16538 12.6317C9.1378 13.3009 11.7339 14.1817 11.7448 17.4445C11.7448 20.6066 9.21254 22.4261 5.52919 22.4261C4.00626 22.4261 2.34167 22.1258 0.694791 21.4192V17.2149C2.1823 18.0275 4.05939 18.6281 5.52919 18.6281C6.52086 18.6281 7.2292 18.3631 7.2292 17.5505C7.2292 16.7173 6.17201 16.3364 4.8957 15.8767C2.95196 15.1764 0.5 14.2931 0.5 11.3501C0.5 8.22333 2.89064 6.35083 6.48544 6.35083C7.95524 6.35083 9.40733 6.58048 10.8771 7.16342V11.3147C9.53129 10.5905 7.83128 10.1842 6.48544 10.1842ZM25.8052 7.95783L25.5219 6.65061H21.6969V22.1076H26.124V11.6322C27.1688 10.272 28.9396 10.5193 29.4886 10.7136V6.65061C28.9219 6.43863 26.85 6.05 25.8052 7.95783ZM30.5684 6.65112H35.0132V22.1081H30.5684V6.65112ZM64.2501 14.4419C64.2501 9.91966 62.0542 6.35132 57.8573 6.35132C53.6428 6.35132 51.0928 9.91966 51.0928 14.4066C51.0928 19.7238 54.1032 22.4089 58.424 22.4089C60.5313 22.4089 62.1251 21.9319 63.3292 21.2606V17.7276C62.1251 18.3282 60.7438 18.6992 58.9907 18.6992C57.273 18.6992 55.7501 18.0986 55.5553 16.0141H64.2146C64.2146 15.9169 64.221 15.696 64.2283 15.4415L64.2283 15.4407L64.2284 15.4405V15.4403C64.2383 15.0941 64.2501 14.686 64.2501 14.4419ZM55.5019 12.7641C55.5019 10.768 56.7238 9.93774 57.8394 9.93774C58.9197 9.93774 60.0707 10.768 60.0707 12.7641H55.5019ZM40.7861 7.72919C41.4059 7.16391 42.5215 6.35132 44.2569 6.35132C47.3559 6.35132 50.2778 9.1424 50.2955 14.2653C50.2955 19.8651 47.409 22.4089 44.2392 22.4089C42.6809 22.4089 41.7423 21.7553 41.1048 21.296L41.0871 26.2952L36.66 27.2315V6.63396H40.5559L40.7861 7.72919ZM41.1049 17.6928C41.5299 18.152 42.1497 18.523 43.1945 18.523C44.8237 18.523 45.9216 16.7565 45.9216 14.3894C45.9216 12.0753 44.806 10.2734 43.1945 10.2734C42.1851 10.2734 41.5476 10.6267 41.0872 11.139L41.1049 17.6928Z" fill="#6461FC"/>
</svg>
