<svg width="141" height="70" viewBox="0 0 141 70" fill="none" xmlns="http://www.w3.org/2000/svg">
<g clip-path="url(#clip0_24_385)">
<path d="M9.08408 29.7338H4.2868V22.0255H9.08408V11.1858H17.959V22.0255H22.7563V29.7338H17.959V56.9534H9.08408V29.7338ZM43.1446 57.917C31.3913 57.917 23.9556 50.2087 23.9556 39.6099C23.9556 28.7702 32.1109 20.8211 42.9048 20.8211C53.6986 20.8211 61.3742 28.7702 61.3742 40.8143V42.9823H33.5501C34.7494 47.559 38.5872 50.2087 43.3845 50.2087C47.4622 50.2087 50.5804 48.2817 53.4587 45.3911L59.4553 51.1723C55.3776 55.749 49.6209 57.917 43.1446 57.917ZM33.3102 35.7558H52.2594C51.0601 30.9382 47.702 28.5293 42.9048 28.5293C38.1075 28.5293 34.5096 31.179 33.3102 35.7558ZM99.2726 50.9314C95.6746 55.2673 90.1578 57.917 83.9213 57.917C73.1275 57.917 64.4924 49.727 64.4924 39.369C64.4924 28.7702 73.1275 20.8211 83.9213 20.8211C90.1578 20.8211 95.6746 23.4708 99.2726 27.8067L93.0361 33.8288C90.6375 31.179 87.5193 29.252 83.6815 29.252C77.9247 29.252 73.3674 33.5879 73.3674 39.369C73.3674 45.1502 77.6849 49.4861 83.4416 49.4861C87.2794 49.4861 90.3976 47.559 92.7963 44.9093L99.2726 50.9314ZM102.631 56.9534V7.09082H111.506V25.157C114.144 22.2664 117.982 20.8211 122.299 20.8211C130.934 20.8211 137.171 26.6023 137.171 36.4785V57.1943H128.296V38.1646C128.296 32.6243 125.418 29.4929 120.381 29.4929C114.864 29.4929 111.506 33.1061 111.506 38.1646V57.1943H102.631V56.9534ZM137.171 15.2808C138.85 15.2808 140.289 16.7261 140.289 18.4123C140.289 20.0985 138.85 21.5438 137.171 21.5438C135.492 21.5438 134.053 20.0985 134.053 18.4123C134.053 16.7261 135.252 15.2808 137.171 15.2808ZM137.171 15.7626C135.732 15.7626 134.532 16.967 134.532 18.4123C134.532 19.8576 135.732 21.062 137.171 21.062C138.61 21.062 139.809 19.8576 139.809 18.4123C139.809 16.967 138.61 15.7626 137.171 15.7626ZM137.171 18.6532H136.451V19.8576H135.972V16.7261H137.171C137.891 16.7261 138.37 16.967 138.37 17.6896C138.37 18.1714 138.13 18.4123 137.651 18.6532L138.37 19.8576H137.891L137.171 18.6532ZM136.451 17.2079V18.4123H137.171C137.651 18.4123 137.891 18.1714 137.891 17.9305C137.891 17.6896 137.651 17.4488 137.171 17.4488L136.451 17.2079Z" fill="#345CAF"/>
</g>
<defs>
<clipPath id="clip0_24_385">
<rect width="140" height="70" fill="white" transform="translate(0.769226)"/>
</clipPath>
</defs>
</svg>
